# xmcd CD database file
#
# Track frame offsets:
#	150
#	13538
#	25792
#	39977
#	53107
#	66326
#	76414
#	89605
#	103068
#	115840
#	128772
#	141482
#	152507
#	163364
#	175803
#	187344
#	199810
#	211810
#	224501
#	236361
#	250124
#	259870
#	272489
#	284105
#	296284
#	310834
#	322417
#
# Disc length: 4444 seconds
#
# Revision: 2
# Processed by: cddbd v1.5.2PL0 Copyright (c) Steve Scherf et al.
# Submitted via: CDex 1.91
#
DISCID=9c115a1b
DTITLE=Howlin' Wolf - Moanin' in the moonlight
DYEAR=1958
DGENRE=Chicago Blues
TTITLE0=Moanin' at midnight
TTITLE1=How many more years
TTITLE2=Smokestack lightnin'
TTITLE3=Baby, how long
TTITLE4=No place to go (you gonna break my life)
TTITLE5=All night Boogie
TTITLE6=Evil (is goin' on)
TTITLE7=I'm leavin' you
TTITLE8=Moanin for my baby
TTITLE9=I asked for water (she gave me gasoline)
TTITLE10=Forty-four
TTITLE11=Somebody in my home
TTITLE12=Wang-Dang-Doodle
TTITLE13=Spoonful
TTITLE14=Howlin' for my darling
TTITLE15=Mr. Airplane Man
TTITLE16=Howlin Wolf Boogie
TTITLE17=Mr. Highway Man
TTITLE18=Oh Red
TTITLE19=Rockin daddy
TTITLE20=So glad
TTITLE21=Nature
TTITLE22=Who will be next
TTITLE23=Going back home
TTITLE24=I'll be around
TTITLE25=Sittin' on top of the world
TTITLE26=Come to me baby
EXTD=YEAR: 1958
EXTT0=
EXTT1=
EXTT2=
EXTT3=
EXTT4=
EXTT5=
EXTT6=
EXTT7=
EXTT8=
EXTT9=
EXTT10=
EXTT11=
EXTT12=
EXTT13=
EXTT14=
EXTT15=
EXTT16=
EXTT17=
EXTT18=
EXTT19=
EXTT20=
EXTT21=
EXTT22=
EXTT23=
EXTT24=
EXTT25=
EXTT26=
PLAYORDER=
